<?xml version="1.0" standalone="no"?>
<!DOCTYPE svg PUBLIC "-//W3C//DTD SVG 20010904//EN"
 "http://www.w3.org/TR/2001/REC-SVG-20010904/DTD/svg10.dtd">
<svg version="1.0" xmlns="http://www.w3.org/2000/svg"
 width="146.000000pt" height="146.000000pt" viewBox="0 0 146.000000 146.000000"
 preserveAspectRatio="xMidYMid meet">
<metadata>
Created by potrace 1.14, written by Peter Selinger 2001-2017
</metadata>
<g transform="translate(0.000000,146.000000) scale(0.100000,-0.100000)"
fill="#000000" stroke="none">
<path d="M177 1446 c-55 -20 -103 -61 -134 -114 l-28 -47 0 -545 c0 -300 3
-557 7 -571 13 -45 74 -114 124 -139 l48 -25 536 0 536 0 49 25 c36 19 61 43
90 84 l40 58 3 535 c3 612 4 602 -75 680 -76 73 -76 73 -652 73 -397 -1 -514
-4 -544 -14z"/>
</g>
</svg>
